<svg width="35" height="35" viewBox="0 0 35 35" fill="none" xmlns="http://www.w3.org/2000/svg">
<circle cx="17.5" cy="17.5" r="16.5" fill="white" fill-opacity="0.5" stroke="black" stroke-width="2"/>
<path d="M17.4755 10.33L17.4272 10.3515C17.4278 10.3526 17.4323 10.3612 17.4427 10.3729C17.4525 10.384 17.4637 10.3933 17.4743 10.4003C17.4766 10.4009 17.4795 10.4015 17.4832 10.402C17.4835 10.402 17.4838 10.4021 17.4842 10.4021C17.489 10.4028 17.4944 10.4031 17.5001 10.4031C17.5058 10.4031 17.5112 10.4028 17.516 10.4021C17.5164 10.4021 17.5167 10.402 17.517 10.402C17.5207 10.4015 17.5236 10.4009 17.5259 10.4003C17.5365 10.3933 17.5477 10.384 17.5575 10.3729C17.5679 10.3612 17.5724 10.3526 17.5729 10.3515L17.5247 10.33M17.4755 10.33L17.5001 10.3191L17.5247 10.33M17.4755 10.33L17.5001 10.3738M17.4755 10.33L17.5001 10.3738M17.5247 10.33L17.5001 10.3738M17.5247 10.33L17.5001 10.3738M17.5174 10.3114L17.5318 10.3174L17.5174 10.3114ZM17.5174 10.3114L17.5411 10.3009L17.5174 10.3114ZM17.5001 10.3041L17.5514 10.2826L17.5001 10.3041ZM17.5001 10.3041L17.4488 10.2826L16.8876 10.0469L17.4591 10.3009L17.4828 10.3114L17.5001 10.3041ZM13.1811 23.8951C13.181 23.8973 13.1809 23.8971 13.1813 23.8939L13.0573 23.8817L13.0862 23.8884L13.088 23.8888L13.0955 23.8905L13.1008 23.8918L13.1777 23.9095L13.1811 23.8951ZM13.097 23.8644L13.0871 23.8687L13.097 23.8644ZM13.2292 23.6869L14.2496 19.272L14.3509 18.8336L14.0117 18.5379L10.6015 15.5643L15.1155 15.169L15.5663 15.1296L15.7416 14.7123L17.5001 10.5254L19.2586 14.7123L19.4339 15.1296L19.8847 15.169L24.3987 15.5643L20.9884 18.5379L20.6493 18.8336L20.7506 19.272L21.771 23.6869L17.887 21.3481L17.5001 21.1152L17.1132 21.3481L13.2292 23.6869ZM21.9032 23.8644L21.9131 23.8687L21.9032 23.8644ZM24.6413 15.5238L24.68 15.5307L24.6413 15.5238Z" stroke="black" stroke-width="1.5"/>
</svg>
