<svg width="35" height="35" viewBox="0 0 35 35" fill="none" xmlns="http://www.w3.org/2000/svg">
<circle cx="17.5" cy="17.5" r="16.5" fill="white" stroke="black" stroke-width="2"/>
<path d="M13.4313 24.4406L17.5001 21.9906L21.5688 24.4406C21.6855 24.5136 21.8095 24.5464 21.9407 24.5391C22.072 24.5318 22.1886 24.4917 22.2907 24.4188C22.3928 24.3458 22.4694 24.2511 22.5204 24.1344C22.5715 24.0177 22.5824 23.8865 22.5532 23.7406L21.4813 19.1031L25.0688 15.975C25.1855 15.8729 25.2548 15.7599 25.2767 15.6359C25.2985 15.512 25.2949 15.3917 25.2657 15.275C25.2366 15.1583 25.1709 15.0599 25.0688 14.9797C24.9668 14.8995 24.8428 14.8521 24.697 14.8375L19.9501 14.4219L18.1126 10.0469C18.0543 9.91564 17.9668 9.8172 17.8501 9.75157C17.7334 9.68595 17.6168 9.65314 17.5001 9.65314C17.3834 9.65314 17.2668 9.68595 17.1501 9.75157C17.0334 9.8172 16.9459 9.91564 16.8876 10.0469L15.0501 14.4219L10.3032 14.8375C10.1574 14.8521 10.0334 14.8995 9.93135 14.9797C9.82926 15.0599 9.76364 15.1583 9.73447 15.275C9.70531 15.3917 9.70166 15.512 9.72354 15.6359C9.74541 15.7599 9.81468 15.8729 9.93135 15.975L13.5188 19.1031L12.447 23.7406C12.4178 23.8865 12.4287 24.0177 12.4798 24.1344C12.5308 24.2511 12.6074 24.3458 12.7095 24.4188C12.8116 24.4917 12.9282 24.5318 13.0595 24.5391C13.1907 24.5464 13.3147 24.5136 13.4313 24.4406Z" fill="black"/>
</svg>
