<svg width="103" height="42" viewBox="0 0 103 42" fill="none" xmlns="http://www.w3.org/2000/svg">
<g clip-path="url(#clip0_244_1590)">
<path d="M87.1641 9.78762V3.35905H69.5079L66.6042 24.8356L63.731 3.35915H57.3638L58.0771 9.0898C57.3417 7.62173 54.7348 3.35915 48.998 3.35915C48.9602 3.35665 42.6222 3.35915 42.6222 3.35915L42.5978 34.6629L37.957 3.35915L29.6182 3.35425L24.8171 35.7892L24.8196 3.35894H16.8389L13.9618 21.5777L11.1593 3.35915H3.17603V38.6213H9.46273V21.625L12.3224 38.6209H15.6647L18.4842 21.625V38.6209H30.6039L31.3393 33.1949H36.2188L36.9518 38.6209L48.8504 38.6283H48.8601V38.6209H48.8675H48.875V27.1747L50.3336 26.9594L53.3535 38.6283H53.3609H59.5007H59.508L59.5055 38.6209H59.5164H59.5238L55.5609 24.9444C57.5692 23.4394 59.8367 19.6174 59.2333 15.9611V15.9587C59.2405 16.0082 62.9738 38.6434 62.9738 38.6434L70.2935 38.6209L75.2951 6.65864V38.621H87.1644V32.279H81.5303V24.1919H87.1644V17.7534H81.5303V9.78762H87.1641ZM32.0799 27.6032L33.806 12.528L35.5982 27.6032H32.0799ZM50.354 20.6423C49.8702 20.88 49.3658 20.9989 48.8747 20.9989V9.65644C48.8832 9.65644 48.8931 9.65415 48.9052 9.65415C49.3976 9.65164 53.0684 9.80505 53.0684 15.2657C53.0684 18.1222 51.8199 19.922 50.354 20.6423ZM99.8311 32.2741V38.616H88.2525V3.35425H94.4866V32.2741H99.8311Z" fill="white"/>
</g>
<defs>
<clipPath id="clip0_244_1590">
<rect width="103" height="42" fill="white"/>
</clipPath>
</defs>
</svg>
